<svg width="48" height="44" viewBox="0 0 48 44" fill="none" xmlns="http://www.w3.org/2000/svg">
<path d="M35.0344 21.1109C35.0156 17.9141 36.4641 15.5047 39.3891 13.7281C37.7531 11.3844 35.2781 10.0953 32.0156 9.84687C28.9266 9.60312 25.5469 11.6469 24.3094 11.6469C23.0016 11.6469 20.0109 9.93125 17.6578 9.93125C12.8016 10.0062 7.64062 13.8031 7.64062 21.5281C7.64062 23.8109 8.05781 26.1687 8.89219 28.5969C10.0078 31.7937 14.0297 39.6266 18.225 39.5C20.4187 39.4484 21.9703 37.9437 24.825 37.9437C27.5953 37.9437 29.0297 39.5 31.4766 39.5C35.7094 39.4391 39.3469 32.3187 40.4062 29.1125C34.7297 26.4359 35.0344 21.275 35.0344 21.1109ZM30.1078 6.81406C32.4844 3.99219 32.2688 1.42344 32.1984 0.5C30.0984 0.621875 27.6703 1.92969 26.2875 3.5375C24.7641 5.2625 23.8687 7.39531 24.0609 9.8C26.3297 9.97344 28.4016 8.80625 30.1078 6.81406Z" fill="white"/>
</svg>
