<svg width="1352" height="282" viewBox="0 0 1352 282" fill="none" xmlns="http://www.w3.org/2000/svg">
<g clip-path="url(#clip0_185_5074)">
<rect width="1352" height="282" fill="#473652"/>
<g opacity="0.5" clip-path="url(#clip1_185_5074)">
<path opacity="0.74" d="M59.4304 -13.8369L9 36.5935" stroke="#FFD52C" stroke-width="3.26864"/>
<path opacity="0.74" d="M109.86 -13.8369L59.4297 36.5935" stroke="#FFD52C" stroke-width="3.26864"/>
<path opacity="0.74" d="M160.29 -13.8369L109.859 36.5935" stroke="#FFD52C" stroke-width="3.26864"/>
<path opacity="0.74" d="M210.723 -13.8369L160.293 36.5935" stroke="#FFD52C" stroke-width="3.26864"/>
<path opacity="0.74" d="M261.153 -13.8369L210.723 36.5935" stroke="#FFD52C" stroke-width="3.26864"/>
<path opacity="0.74" d="M261.152 -13.8369L311.583 36.5935" stroke="#FFD52C" stroke-width="3.26864"/>
<path opacity="0.74" d="M362.012 -13.8369L311.582 36.5935" stroke="#FFD52C" stroke-width="3.26864"/>
<path opacity="0.74" d="M362.012 -13.8369L412.442 36.5935" stroke="#FFD52C" stroke-width="3.26864"/>
<path opacity="0.74" d="M462.872 -13.8369L412.441 36.5935" stroke="#FFD52C" stroke-width="3.26864"/>
<path opacity="0.74" d="M462.875 -13.8369L513.305 36.5935" stroke="#FFD52C" stroke-width="3.26864"/>
<path opacity="0.74" d="M513.305 -13.8369L563.735 36.5935" stroke="#FFD52C" stroke-width="3.26864"/>
<path opacity="0.74" d="M563.734 -13.8369L614.165 36.5935" stroke="#FFD52C" stroke-width="3.26864"/>
<path opacity="0.74" d="M614.164 -13.8369L664.594 36.5935" stroke="#FFD52C" stroke-width="3.26864"/>
<path opacity="0.74" d="M715.024 -13.8369L664.594 36.5935" stroke="#FFD52C" stroke-width="3.26864"/>
<path opacity="0.74" d="M765.454 -13.8369L715.023 36.5935" stroke="#FFD52C" stroke-width="3.26864"/>
<path opacity="0.74" d="M765.457 -13.8369L815.887 36.5935" stroke="#FFD52C" stroke-width="3.26864"/>
<path opacity="0.74" d="M866.317 -13.8369L815.887 36.5935" stroke="#FFD52C" stroke-width="3.26864"/>
<path opacity="0.74" d="M916.747 -13.8369L866.316 36.5935" stroke="#FFD52C" stroke-width="3.26864"/>
<path opacity="0.74" d="M967.176 -13.8369L916.746 36.5935" stroke="#FFD52C" stroke-width="3.26864"/>
<path opacity="0.74" d="M1017.61 -13.8369L967.176 36.5935" stroke="#FFD52C" stroke-width="3.26864"/>
<path opacity="0.74" d="M1017.61 -13.8369L1068.04 36.5935" stroke="#FFD52C" stroke-width="3.26864"/>
<path opacity="0.74" d="M1118.47 -13.8369L1068.04 36.5935" stroke="#FFD52C" stroke-width="3.26864"/>
<path opacity="0.74" d="M1118.47 -13.8369L1168.9 36.5935" stroke="#FFD52C" stroke-width="3.26864"/>
<path opacity="0.74" d="M1168.9 -13.8369L1219.33 36.5935" stroke="#FFD52C" stroke-width="3.26864"/>
<path opacity="0.74" d="M1269.76 -13.8369L1219.33 36.5935" stroke="#FFD52C" stroke-width="3.26864"/>
<path opacity="0.74" d="M1320.19 -13.8369L1269.76 36.5935" stroke="#FFD52C" stroke-width="3.26864"/>
<path opacity="0.74" d="M1370.62 -13.8369L1320.19 36.5935" stroke="#FFD52C" stroke-width="3.26864"/>
<path opacity="0.68" d="M9 36.5938L59.4304 87.0241" stroke="#FFD52C" stroke-width="3.26864"/>
<path opacity="0.68" d="M109.86 36.5938L59.4297 87.0241" stroke="#FFD52C" stroke-width="3.26864"/>
<path opacity="0.68" d="M160.29 36.5938L109.859 87.0241" stroke="#FFD52C" stroke-width="3.26864"/>
<path opacity="0.68" d="M210.723 36.5938L160.293 87.0241" stroke="#FFD52C" stroke-width="3.26864"/>
<path opacity="0.68" d="M261.153 36.5938L210.723 87.0241" stroke="#FFD52C" stroke-width="3.26864"/>
<path opacity="0.68" d="M311.583 36.5938L261.152 87.0241" stroke="#FFD52C" stroke-width="3.26864"/>
<path opacity="0.68" d="M362.012 36.5938L311.582 87.0241" stroke="#FFD52C" stroke-width="3.26864"/>
<path opacity="0.68" d="M362.012 36.5938L412.442 87.0241" stroke="#FFD52C" stroke-width="3.26864"/>
<path opacity="0.68" d="M462.872 36.5938L412.441 87.0241" stroke="#FFD52C" stroke-width="3.26864"/>
<path opacity="0.68" d="M462.875 36.5938L513.305 87.0241" stroke="#FFD52C" stroke-width="3.26864"/>
<path opacity="0.68" d="M563.735 36.5938L513.305 87.0241" stroke="#FFD52C" stroke-width="3.26864"/>
<path opacity="0.68" d="M614.165 36.5938L563.734 87.0241" stroke="#FFD52C" stroke-width="3.26864"/>
<path opacity="0.68" d="M664.594 36.5938L614.164 87.0241" stroke="#FFD52C" stroke-width="3.26864"/>
<path opacity="0.68" d="M715.024 36.5938L664.594 87.0241" stroke="#FFD52C" stroke-width="3.26864"/>
<path opacity="0.68" d="M715.023 36.5938L765.454 87.0241" stroke="#FFD52C" stroke-width="3.26864"/>
<path opacity="0.68" d="M765.457 36.5938L815.887 87.0241" stroke="#FFD52C" stroke-width="3.26864"/>
<path opacity="0.68" d="M815.887 36.5938L866.317 87.0241" stroke="#FFD52C" stroke-width="3.26864"/>
<path opacity="0.68" d="M916.747 36.5938L866.316 87.0241" stroke="#FFD52C" stroke-width="3.26864"/>
<path opacity="0.68" d="M916.746 36.5938L967.176 87.0241" stroke="#FFD52C" stroke-width="3.26864"/>
<path opacity="0.68" d="M1017.61 36.5938L967.176 87.0241" stroke="#FFD52C" stroke-width="3.26864"/>
<path opacity="0.68" d="M1017.61 36.5938L1068.04 87.0241" stroke="#FFD52C" stroke-width="3.26864"/>
<path opacity="0.68" d="M1118.47 36.5938L1068.04 87.0241" stroke="#FFD52C" stroke-width="3.26864"/>
<path opacity="0.68" d="M1168.9 36.5938L1118.47 87.0241" stroke="#FFD52C" stroke-width="3.26864"/>
<path opacity="0.68" d="M1168.9 36.5938L1219.33 87.0241" stroke="#FFD52C" stroke-width="3.26864"/>
<path opacity="0.68" d="M1269.76 36.5938L1219.33 87.0241" stroke="#FFD52C" stroke-width="3.26864"/>
<path opacity="0.68" d="M1269.76 36.5938L1320.19 87.0241" stroke="#FFD52C" stroke-width="3.26864"/>
<path opacity="0.68" d="M1370.62 36.5938L1320.19 87.0241" stroke="#FFD52C" stroke-width="3.26864"/>
<path opacity="0.62" d="M9 87.0234L59.4304 137.454" stroke="#FFD52C" stroke-width="3.26864"/>
<path opacity="0.62" d="M59.4297 87.0234L109.86 137.454" stroke="#FFD52C" stroke-width="3.26864"/>
<path opacity="0.62" d="M160.29 87.0234L109.859 137.454" stroke="#FFD52C" stroke-width="3.26864"/>
<path opacity="0.62" d="M160.293 87.0234L210.723 137.454" stroke="#FFD52C" stroke-width="3.26864"/>
<path opacity="0.62" d="M210.723 87.0234L261.153 137.454" stroke="#FFD52C" stroke-width="3.26864"/>
<path opacity="0.62" d="M311.583 87.0234L261.152 137.454" stroke="#FFD52C" stroke-width="3.26864"/>
<path opacity="0.62" d="M362.012 87.0234L311.582 137.454" stroke="#FFD52C" stroke-width="3.26864"/>
<path opacity="0.62" d="M412.442 87.0234L362.012 137.454" stroke="#FFD52C" stroke-width="3.26864"/>
<path opacity="0.62" d="M462.872 87.0234L412.441 137.454" stroke="#FFD52C" stroke-width="3.26864"/>
<path opacity="0.62" d="M462.875 87.0234L513.305 137.454" stroke="#FFD52C" stroke-width="3.26864"/>
<path opacity="0.62" d="M563.735 87.0234L513.305 137.454" stroke="#FFD52C" stroke-width="3.26864"/>
<path opacity="0.62" d="M563.734 87.0234L614.165 137.454" stroke="#FFD52C" stroke-width="3.26864"/>
<path opacity="0.62" d="M614.164 87.0234L664.594 137.454" stroke="#FFD52C" stroke-width="3.26864"/>
<path opacity="0.62" d="M715.024 87.0234L664.594 137.454" stroke="#FFD52C" stroke-width="3.26864"/>
<path opacity="0.62" d="M715.023 87.0234L765.454 137.454" stroke="#FFD52C" stroke-width="3.26864"/>
<path opacity="0.62" d="M815.887 87.0234L765.457 137.454" stroke="#FFD52C" stroke-width="3.26864"/>
<path opacity="0.62" d="M866.317 87.0234L815.887 137.454" stroke="#FFD52C" stroke-width="3.26864"/>
<path opacity="0.62" d="M916.747 87.0234L866.316 137.454" stroke="#FFD52C" stroke-width="3.26864"/>
<path opacity="0.62" d="M967.176 87.0234L916.746 137.454" stroke="#FFD52C" stroke-width="3.26864"/>
<path opacity="0.62" d="M1017.61 87.0234L967.176 137.454" stroke="#FFD52C" stroke-width="3.26864"/>
<path opacity="0.62" d="M1017.61 87.0234L1068.04 137.454" stroke="#FFD52C" stroke-width="3.26864"/>
<path opacity="0.62" d="M1068.04 87.0234L1118.47 137.454" stroke="#FFD52C" stroke-width="3.26864"/>
<path opacity="0.62" d="M1118.47 87.0234L1168.9 137.454" stroke="#FFD52C" stroke-width="3.26864"/>
<path opacity="0.62" d="M1219.33 87.0234L1168.9 137.454" stroke="#FFD52C" stroke-width="3.26864"/>
<path opacity="0.62" d="M1269.76 87.0234L1219.33 137.454" stroke="#FFD52C" stroke-width="3.26864"/>
<path opacity="0.62" d="M1320.19 87.0234L1269.76 137.454" stroke="#FFD52C" stroke-width="3.26864"/>
<path opacity="0.62" d="M1320.19 87.0234L1370.62 137.454" stroke="#FFD52C" stroke-width="3.26864"/>
<path opacity="0.55" d="M9 137.454L59.4304 187.884" stroke="#FFD52C" stroke-width="3.26864"/>
<path opacity="0.55" d="M109.86 137.454L59.4297 187.884" stroke="#FFD52C" stroke-width="3.26864"/>
<path opacity="0.55" d="M160.29 137.454L109.859 187.884" stroke="#FFD52C" stroke-width="3.26864"/>
<path opacity="0.55" d="M160.293 137.454L210.723 187.884" stroke="#FFD52C" stroke-width="3.26864"/>
<path opacity="0.55" d="M261.153 137.454L210.723 187.884" stroke="#FFD52C" stroke-width="3.26864"/>
<path opacity="0.55" d="M311.583 137.454L261.152 187.884" stroke="#FFD52C" stroke-width="3.26864"/>
<path opacity="0.55" d="M311.582 137.454L362.012 187.884" stroke="#FFD52C" stroke-width="3.26864"/>
<path opacity="0.55" d="M362.012 137.454L412.442 187.884" stroke="#FFD52C" stroke-width="3.26864"/>
<path opacity="0.55" d="M462.872 137.454L412.441 187.884" stroke="#FFD52C" stroke-width="3.26864"/>
<path opacity="0.55" d="M462.875 137.454L513.305 187.884" stroke="#FFD52C" stroke-width="3.26864"/>
<path opacity="0.55" d="M513.305 137.454L563.735 187.884" stroke="#FFD52C" stroke-width="3.26864"/>
<path opacity="0.55" d="M614.165 137.454L563.734 187.884" stroke="#FFD52C" stroke-width="3.26864"/>
<path opacity="0.55" d="M614.164 137.454L664.594 187.884" stroke="#FFD52C" stroke-width="3.26864"/>
<path opacity="0.55" d="M715.024 137.454L664.594 187.884" stroke="#FFD52C" stroke-width="3.26864"/>
<path opacity="0.55" d="M765.454 137.454L715.023 187.884" stroke="#FFD52C" stroke-width="3.26864"/>
<path opacity="0.55" d="M815.887 137.454L765.457 187.884" stroke="#FFD52C" stroke-width="3.26864"/>
<path opacity="0.55" d="M815.887 137.454L866.317 187.884" stroke="#FFD52C" stroke-width="3.26864"/>
<path opacity="0.55" d="M916.747 137.454L866.316 187.884" stroke="#FFD52C" stroke-width="3.26864"/>
<path opacity="0.55" d="M967.176 137.454L916.746 187.884" stroke="#FFD52C" stroke-width="3.26864"/>
<path opacity="0.55" d="M967.176 137.454L1017.61 187.884" stroke="#FFD52C" stroke-width="3.26864"/>
<path opacity="0.55" d="M1017.61 137.454L1068.04 187.884" stroke="#FFD52C" stroke-width="3.26864"/>
<path opacity="0.55" d="M1068.04 137.454L1118.47 187.884" stroke="#FFD52C" stroke-width="3.26864"/>
<path opacity="0.55" d="M1118.47 137.454L1168.9 187.884" stroke="#FFD52C" stroke-width="3.26864"/>
<path opacity="0.55" d="M1219.33 137.454L1168.9 187.884" stroke="#FFD52C" stroke-width="3.26864"/>
<path opacity="0.55" d="M1219.33 137.454L1269.76 187.884" stroke="#FFD52C" stroke-width="3.26864"/>
<path opacity="0.55" d="M1320.19 137.454L1269.76 187.884" stroke="#FFD52C" stroke-width="3.26864"/>
<path opacity="0.55" d="M1370.62 137.454L1320.19 187.884" stroke="#FFD52C" stroke-width="3.26864"/>
<path opacity="0.49" d="M9 187.885L59.4304 238.315" stroke="#FFD52C" stroke-width="3.26864"/>
<path opacity="0.49" d="M109.86 187.885L59.4297 238.315" stroke="#FFD52C" stroke-width="3.26864"/>
<path opacity="0.49" d="M160.29 187.885L109.859 238.315" stroke="#FFD52C" stroke-width="3.26864"/>
<path opacity="0.49" d="M160.293 187.885L210.723 238.315" stroke="#FFD52C" stroke-width="3.26864"/>
<path opacity="0.49" d="M210.723 187.885L261.153 238.315" stroke="#FFD52C" stroke-width="3.26864"/>
<path opacity="0.49" d="M261.152 187.885L311.583 238.315" stroke="#FFD52C" stroke-width="3.26864"/>
<path opacity="0.49" d="M362.012 187.885L311.582 238.315" stroke="#FFD52C" stroke-width="3.26864"/>
<path opacity="0.49" d="M412.442 187.885L362.012 238.315" stroke="#FFD52C" stroke-width="3.26864"/>
<path opacity="0.49" d="M462.872 187.885L412.441 238.315" stroke="#FFD52C" stroke-width="3.26864"/>
<path opacity="0.49" d="M462.875 187.885L513.305 238.315" stroke="#FFD52C" stroke-width="3.26864"/>
<path opacity="0.49" d="M563.735 187.885L513.305 238.315" stroke="#FFD52C" stroke-width="3.26864"/>
<path opacity="0.49" d="M614.165 187.885L563.734 238.315" stroke="#FFD52C" stroke-width="3.26864"/>
<path opacity="0.49" d="M664.594 187.885L614.164 238.315" stroke="#FFD52C" stroke-width="3.26864"/>
<path opacity="0.49" d="M664.594 187.885L715.024 238.315" stroke="#FFD52C" stroke-width="3.26864"/>
<path opacity="0.49" d="M765.454 187.885L715.023 238.315" stroke="#FFD52C" stroke-width="3.26864"/>
<path opacity="0.49" d="M815.887 187.885L765.457 238.315" stroke="#FFD52C" stroke-width="3.26864"/>
<path opacity="0.49" d="M815.887 187.885L866.317 238.315" stroke="#FFD52C" stroke-width="3.26864"/>
<path opacity="0.49" d="M866.316 187.885L916.747 238.315" stroke="#FFD52C" stroke-width="3.26864"/>
<path opacity="0.49" d="M967.176 187.885L916.746 238.315" stroke="#FFD52C" stroke-width="3.26864"/>
<path opacity="0.49" d="M967.176 187.885L1017.61 238.315" stroke="#FFD52C" stroke-width="3.26864"/>
<path opacity="0.49" d="M1017.61 187.885L1068.04 238.315" stroke="#FFD52C" stroke-width="3.26864"/>
<path opacity="0.49" d="M1118.47 187.885L1068.04 238.315" stroke="#FFD52C" stroke-width="3.26864"/>
<path opacity="0.49" d="M1118.47 187.885L1168.9 238.315" stroke="#FFD52C" stroke-width="3.26864"/>
<path opacity="0.49" d="M1168.9 187.885L1219.33 238.315" stroke="#FFD52C" stroke-width="3.26864"/>
<path opacity="0.49" d="M1269.76 187.885L1219.33 238.315" stroke="#FFD52C" stroke-width="3.26864"/>
<path opacity="0.49" d="M1320.19 187.885L1269.76 238.315" stroke="#FFD52C" stroke-width="3.26864"/>
<path opacity="0.49" d="M1370.62 187.885L1320.19 238.315" stroke="#FFD52C" stroke-width="3.26864"/>
<path opacity="0.42" d="M59.4304 238.315L9 288.746" stroke="#FFD52C" stroke-width="3.26864"/>
<path opacity="0.42" d="M59.4297 238.315L109.86 288.746" stroke="#FFD52C" stroke-width="3.26864"/>
<path opacity="0.42" d="M160.29 238.315L109.859 288.746" stroke="#FFD52C" stroke-width="3.26864"/>
<path opacity="0.42" d="M210.723 238.315L160.293 288.746" stroke="#FFD52C" stroke-width="3.26864"/>
<path opacity="0.42" d="M210.723 238.315L261.153 288.746" stroke="#FFD52C" stroke-width="3.26864"/>
<path opacity="0.42" d="M311.583 238.315L261.152 288.746" stroke="#FFD52C" stroke-width="3.26864"/>
<path opacity="0.42" d="M362.012 238.315L311.582 288.746" stroke="#FFD52C" stroke-width="3.26864"/>
<path opacity="0.42" d="M412.442 238.315L362.012 288.746" stroke="#FFD52C" stroke-width="3.26864"/>
<path opacity="0.42" d="M462.872 238.315L412.441 288.746" stroke="#FFD52C" stroke-width="3.26864"/>
<path opacity="0.42" d="M462.875 238.315L513.305 288.746" stroke="#FFD52C" stroke-width="3.26864"/>
<path opacity="0.42" d="M563.735 238.315L513.305 288.746" stroke="#FFD52C" stroke-width="3.26864"/>
<path opacity="0.42" d="M614.165 238.315L563.734 288.746" stroke="#FFD52C" stroke-width="3.26864"/>
<path opacity="0.42" d="M664.594 238.315L614.164 288.746" stroke="#FFD52C" stroke-width="3.26864"/>
<path opacity="0.42" d="M715.024 238.315L664.594 288.746" stroke="#FFD52C" stroke-width="3.26864"/>
<path opacity="0.42" d="M715.023 238.315L765.454 288.746" stroke="#FFD52C" stroke-width="3.26864"/>
<path opacity="0.42" d="M765.457 238.315L815.887 288.746" stroke="#FFD52C" stroke-width="3.26864"/>
<path opacity="0.42" d="M815.887 238.315L866.317 288.746" stroke="#FFD52C" stroke-width="3.26864"/>
<path opacity="0.42" d="M866.316 238.315L916.747 288.746" stroke="#FFD52C" stroke-width="3.26864"/>
<path opacity="0.42" d="M967.176 238.315L916.746 288.746" stroke="#FFD52C" stroke-width="3.26864"/>
<path opacity="0.42" d="M1017.61 238.315L967.176 288.746" stroke="#FFD52C" stroke-width="3.26864"/>
<path opacity="0.42" d="M1017.61 238.315L1068.04 288.746" stroke="#FFD52C" stroke-width="3.26864"/>
<path opacity="0.42" d="M1118.47 238.315L1068.04 288.746" stroke="#FFD52C" stroke-width="3.26864"/>
<path opacity="0.42" d="M1168.9 238.315L1118.47 288.746" stroke="#FFD52C" stroke-width="3.26864"/>
<path opacity="0.42" d="M1219.33 238.315L1168.9 288.746" stroke="#FFD52C" stroke-width="3.26864"/>
<path opacity="0.42" d="M1219.33 238.315L1269.76 288.746" stroke="#FFD52C" stroke-width="3.26864"/>
<path opacity="0.42" d="M1269.76 238.315L1320.19 288.746" stroke="#FFD52C" stroke-width="3.26864"/>
<path opacity="0.42" d="M1370.62 238.315L1320.19 288.746" stroke="#FFD52C" stroke-width="3.26864"/>
</g>
</g>
<defs>
<clipPath id="clip0_185_5074">
<rect width="1352" height="282" fill="white"/>
</clipPath>
<clipPath id="clip1_185_5074">
<rect width="1328" height="747.117" fill="white" transform="translate(9 -215.559)"/>
</clipPath>
</defs>
</svg>
