<svg width="21" height="20" viewBox="0 0 21 20" fill="none" xmlns="http://www.w3.org/2000/svg">
<path d="M10.5 6.66699L10.5 13.3337" stroke="#565656" stroke-width="2" stroke-linecap="round" stroke-linejoin="round"/>
<path d="M14.8346 12.5C14.8346 11.9477 14.3869 11.5 13.8346 11.5C13.2824 11.5 12.8346 11.9477 12.8346 12.5H14.8346ZM13.8346 14.1667H14.8346H13.8346ZM7.16797 14.1667H6.16797H7.16797ZM8.16797 12.5C8.16797 11.9477 7.72025 11.5 7.16797 11.5C6.61568 11.5 6.16797 11.9477 6.16797 12.5L8.16797 12.5ZM12.8346 12.5V14.1667H14.8346V12.5H12.8346ZM8.16797 14.1667L8.16797 12.5L6.16797 12.5L6.16797 14.1667H8.16797ZM10.5013 16.5C9.21264 16.5 8.16797 15.4553 8.16797 14.1667H6.16797C6.16797 16.5599 8.10807 18.5 10.5013 18.5V16.5ZM12.8346 14.1667C12.8346 15.4553 11.79 16.5 10.5013 16.5V18.5C12.8945 18.5 14.8346 16.5599 14.8346 14.1667L12.8346 14.1667Z" fill="#565656"/>
<path d="M12.8346 7.5C12.8346 8.05228 13.2824 8.5 13.8346 8.5C14.3869 8.5 14.8346 8.05228 14.8346 7.5H12.8346ZM13.8346 5.83333H12.8346H13.8346ZM7.16797 5.83333H8.16797H7.16797ZM6.16797 7.5C6.16797 8.05228 6.61568 8.5 7.16797 8.5C7.72025 8.5 8.16797 8.05228 8.16797 7.5H6.16797ZM14.8346 7.5V5.83333H12.8346V7.5H14.8346ZM6.16797 5.83333L6.16797 7.5H8.16797L8.16797 5.83333H6.16797ZM10.5013 1.5C8.10807 1.5 6.16797 3.4401 6.16797 5.83333H8.16797C8.16797 4.54467 9.21264 3.5 10.5013 3.5L10.5013 1.5ZM14.8346 5.83333C14.8346 3.4401 12.8945 1.5 10.5013 1.5L10.5013 3.5C11.79 3.5 12.8346 4.54467 12.8346 5.83333H14.8346Z" fill="#565656"/>
</svg>
