<svg width="20" height="20" viewBox="0 0 20 20" fill="none" xmlns="http://www.w3.org/2000/svg">
<path d="M3.33203 16.667H16.6654" stroke="#949494" stroke-width="2" stroke-linecap="round" stroke-linejoin="round"/>
<path d="M6.66536 16.6669V17.6669C6.93058 17.6669 7.18493 17.5615 7.37247 17.374L6.66536 16.6669ZM3.33203 16.6669H2.33203C2.33203 17.2192 2.77975 17.6669 3.33203 17.6669V16.6669ZM3.33203 13.3335L2.62492 12.6264C2.43739 12.814 2.33203 13.0683 2.33203 13.3335H3.33203ZM12.7428 3.92279L13.4499 4.6299V4.6299L12.7428 3.92279ZM13.9213 3.92279L13.2142 4.6299L13.2142 4.6299L13.9213 3.92279ZM16.0761 6.07761L16.7832 5.3705V5.3705L16.0761 6.07761ZM16.0761 7.25612L15.369 6.54901L16.0761 7.25612ZM6.66536 15.6669H3.33203V17.6669H6.66536V15.6669ZM4.33203 16.6669V13.3335H2.33203V16.6669H4.33203ZM4.03914 14.0406L13.4499 4.6299L12.0357 3.21568L2.62492 12.6264L4.03914 14.0406ZM13.2142 4.6299L15.369 6.78472L16.7832 5.3705L14.6284 3.21568L13.2142 4.6299ZM15.369 6.54901L5.95826 15.9598L7.37247 17.374L16.7832 7.96323L15.369 6.54901ZM15.369 6.78472C15.3039 6.71963 15.3039 6.6141 15.369 6.54901L16.7832 7.96323C17.4992 7.24727 17.4992 6.08647 16.7832 5.3705L15.369 6.78472ZM13.4499 4.6299C13.3848 4.69498 13.2793 4.69498 13.2142 4.6299L14.6284 3.21568C13.9124 2.49972 12.7516 2.49972 12.0357 3.21568L13.4499 4.6299Z" fill="#949494"/>
</svg>
