<svg width="44" height="44" viewBox="0 0 44 44" fill="none" xmlns="http://www.w3.org/2000/svg">
<path d="M39.9761 18.4097H38.4994V18.3337H21.9993V25.667H32.3604C30.8489 29.9359 26.7871 33.0003 21.9993 33.0003C15.9246 33.0003 10.9993 28.0751 10.9993 22.0003C10.9993 15.9256 15.9246 11.0003 21.9993 11.0003C24.8034 11.0003 27.3545 12.0582 29.2969 13.7861L34.4825 8.60049C31.2082 5.54891 26.8284 3.66699 21.9993 3.66699C11.8748 3.66699 3.66602 11.8757 3.66602 22.0003C3.66602 32.1249 11.8748 40.3337 21.9993 40.3337C32.1239 40.3337 40.3327 32.1249 40.3327 22.0003C40.3327 20.7711 40.2062 19.5712 39.9761 18.4097Z" fill="#FFC107"/>
<path d="M5.78125 13.4671L11.8047 17.8845C13.4345 13.8493 17.3817 11.0003 22.0007 11.0003C24.8048 11.0003 27.3559 12.0582 29.2983 13.7861L34.4839 8.60049C31.2096 5.54891 26.8298 3.66699 22.0007 3.66699C14.9589 3.66699 8.85208 7.64258 5.78125 13.4671Z" fill="#FF3D00"/>
<path d="M22.0009 40.333C26.7364 40.333 31.0393 38.5207 34.2925 35.5737L28.6184 30.7722C26.7159 32.219 24.3911 33.0015 22.0009 32.9997C17.2324 32.9997 13.1835 29.9591 11.6582 25.7158L5.67969 30.3221C8.71385 36.2593 14.8757 40.333 22.0009 40.333Z" fill="#4CAF50"/>
<path d="M39.9768 18.4091H38.5V18.333H22V25.6663H32.3611C31.638 27.6981 30.3356 29.4734 28.6147 30.7731L28.6174 30.7713L34.2916 35.5728C33.8901 35.9376 40.3333 31.1663 40.3333 21.9997C40.3333 20.7704 40.2068 19.5705 39.9768 18.4091Z" fill="#1976D2"/>
</svg>
