<svg width="18" height="15" viewBox="0 0 18 15" fill="none" xmlns="http://www.w3.org/2000/svg">
<path d="M5.80078 7.4L9.00078 10.6L12.2008 7.4M9.00078 1V10.6V1Z" stroke="#D9D9D9" stroke-width="2" stroke-linecap="round" stroke-linejoin="round"/>
<path d="M5.8 2.59961H2.6C2.17565 2.59961 1.76869 2.76818 1.46863 3.06824C1.16857 3.3683 1 3.77526 1 4.19961V12.1996C1 12.624 1.16857 13.0309 1.46863 13.331C1.76869 13.631 2.17565 13.7996 2.6 13.7996H15.4C15.8243 13.7996 16.2313 13.631 16.5314 13.331C16.8314 13.0309 17 12.624 17 12.1996V4.19961C17 3.77526 16.8314 3.3683 16.5314 3.06824C16.2313 2.76818 15.8243 2.59961 15.4 2.59961H12.2" stroke="#D9D9D9" stroke-width="2" stroke-linecap="round" stroke-linejoin="round"/>
</svg>
