<svg width="25" height="24" viewBox="0 0 25 24" fill="none" xmlns="http://www.w3.org/2000/svg">
<path d="M12.207 14.2929C11.8164 14.6834 11.8164 15.3166 12.207 15.7071C12.5975 16.0976 13.2306 16.0976 13.6212 15.7071L12.207 14.2929ZM15.9141 12L16.6212 12.7071C16.8087 12.5196 16.9141 12.2652 16.9141 12C16.9141 11.7348 16.8087 11.4804 16.6212 11.2929L15.9141 12ZM13.6212 8.29289C13.2306 7.90237 12.5975 7.90237 12.207 8.29289C11.8164 8.68342 11.8164 9.31658 12.207 9.70711L13.6212 8.29289ZM4.91406 11C4.36178 11 3.91406 11.4477 3.91406 12C3.91406 12.5523 4.36178 13 4.91406 13L4.91406 11ZM13.6212 15.7071L16.6212 12.7071L15.207 11.2929L12.207 14.2929L13.6212 15.7071ZM16.6212 11.2929L13.6212 8.29289L12.207 9.70711L15.207 12.7071L16.6212 11.2929ZM4.91406 13L15.9141 13V11L4.91406 11L4.91406 13Z" fill="#949494"/>
<path d="M9.91406 7V5C9.91406 4.44772 10.3618 4 10.9141 4H19.9141C20.4663 4 20.9141 4.44772 20.9141 5V19C20.9141 19.5523 20.4663 20 19.9141 20H10.9141C10.3618 20 9.91406 19.5523 9.91406 19V17" stroke="#949494" stroke-width="2" stroke-linecap="round" stroke-linejoin="round"/>
</svg>
