<svg width="67" height="63" viewBox="0 0 67 63" fill="none" xmlns="http://www.w3.org/2000/svg">
<g filter="url(#filter0_d_876_1991)">
<path d="M25.25 33.8945C25.25 31.6854 28.2348 29.8945 31.9167 29.8945C35.5986 29.8945 38.5833 31.6854 38.5833 33.8945" stroke="#949494" stroke-width="2" stroke-linecap="round" stroke-linejoin="round"/>
<path d="M39.9141 26.2266C42.2686 26.8438 43.9141 28.2535 43.9141 29.8937" stroke="#949494" stroke-width="2" stroke-linecap="round" stroke-linejoin="round"/>
<path d="M23.9141 26.2266C21.5595 26.8438 19.9141 28.2535 19.9141 29.8937" stroke="#949494" stroke-width="2" stroke-linecap="round" stroke-linejoin="round"/>
<path d="M31.9141 25.8945C34.1232 25.8945 35.9141 24.1037 35.9141 21.8945C35.9141 19.6854 34.1232 17.8945 31.9141 17.8945C29.7049 17.8945 27.9141 19.6854 27.9141 21.8945C27.9141 24.1037 29.7049 25.8945 31.9141 25.8945Z" stroke="#949494" stroke-width="2" stroke-linecap="round" stroke-linejoin="round"/>
<path d="M39.9115 20.876C40.7298 20.1436 41.2448 19.0792 41.2448 17.8945C41.2448 15.6854 39.4539 13.8945 37.2448 13.8945C36.2203 13.8945 35.2858 14.2797 34.5781 14.9131" stroke="#949494" stroke-width="2" stroke-linecap="round" stroke-linejoin="round"/>
<path d="M23.9115 20.876C23.0931 20.1436 22.5781 19.0792 22.5781 17.8945C22.5781 15.6854 24.369 13.8945 26.5781 13.8945C27.6026 13.8945 28.5371 14.2797 29.2448 14.9131" stroke="#949494" stroke-width="2" stroke-linecap="round" stroke-linejoin="round"/>
</g>
<defs>
<filter id="filter0_d_876_1991" x="0.914062" y="0.894531" width="66" height="62" filterUnits="userSpaceOnUse" color-interpolation-filters="sRGB">
<feFlood flood-opacity="0" result="BackgroundImageFix"/>
<feColorMatrix in="SourceAlpha" type="matrix" values="0 0 0 0 0 0 0 0 0 0 0 0 0 0 0 0 0 0 127 0" result="hardAlpha"/>
<feOffset dx="2" dy="8"/>
<feGaussianBlur stdDeviation="10"/>
<feComposite in2="hardAlpha" operator="out"/>
<feColorMatrix type="matrix" values="0 0 0 0 0.580208 0 0 0 0 0.580208 0 0 0 0 0.580208 0 0 0 0.1 0"/>
<feBlend mode="normal" in2="BackgroundImageFix" result="effect1_dropShadow_876_1991"/>
<feBlend mode="normal" in="SourceGraphic" in2="effect1_dropShadow_876_1991" result="shape"/>
</filter>
</defs>
</svg>
